<svg version="1.2" xmlns="http://www.w3.org/2000/svg" viewBox="0 0 1528 1540" width="1528" height="1540">
	<title>logo</title>
	<style>
		.s0 { fill: #393939 } 
	</style>
	<path id="Layer" fill-rule="evenodd" class="s0" d="m1384.7 0h95.5v95.5h-95.5zm-238.6 668.8v-191.4l0.1 0.1h190.9v191h190.9v60.5c0 70-5.9 152.9-19.6 218-7.7 36.4-19.3 72.5-32.9 107.3-14 35.5-30.1 69.5-47.6 100q-8.6 15.2-17.9 29.9-9.4 14.7-19.4 29-10 14.3-20.6 28-10.7 13.8-22 27.1l-1.6 1.9-2.7 3.1c-7.3 8.7-14.6 17.2-22.6 25.6q-3.5 3.7-7.1 7.3-3.6 3.7-7.2 7.3-3.6 3.6-7.2 7.1-3.7 3.6-7.4 7.1c-122.2 117.7-281.4 191.2-447.9 208.1-20 2-60.2 4.2-80.3 4.2-20.1-0.1-60.3-2.2-80.3-4.2-166.5-16.9-325.7-90.5-447.9-208.1q-3.7-3.5-7.4-7.1-3.6-3.5-7.2-7.1-3.6-3.6-7.2-7.3-3.6-3.6-7.1-7.3c-8.4-8.7-15.9-17.7-23.6-26.7l-3.3-3.9q-11.3-13.3-22-27.1-10.6-13.7-20.6-28-10-14.3-19.4-29-9.3-14.7-17.9-29.9c-17.5-30.5-33.6-64.5-47.6-100-13.6-34.8-25.2-70.9-32.9-107.3-13.7-65.2-19.6-148-19.6-218v-717h381.9v656.8c0 0 0 50.3 0.6 66.8l0.2 3.8v0.1c0.8 21.3 1.5 42.1 3.8 62.9 6.3 59 19.3 115 46.2 162.3 7.8 13.6 15.7 26.9 25.1 39.5 57.4 76.6 144.9 134.1 253.9 150.1 13 1.9 39.2 3.6 52.3 3.6 13.1 0 39.3-1.7 52.3-3.6 109-16 196.5-73.5 253.9-150.1 9.5-12.6 17.3-25.9 25.1-39.5 26.9-47.3 39.9-103.3 46.2-162.3 2.3-20.8 3-41.7 3.8-63.1l0.2-3.7c0.6-16.5 0.6-66.8 0.6-66.8zm47.7-525.6h143.2v143.3h191v190.9h-191v-190.9h-143.2c0 0 0-143.2 0-143.3z"/>
</svg>